HIERARCHY
ROOT root
{
	OFFSET	0	13.1	24.9
	CHANNELS 6  Xposition Yposition Zposition Xrotation Yrotation Zrotation
	JOINT spine_1
	{
		OFFSET	0	9.99999	0
		CHANNELS 3  Xrotation Yrotation Zrotation
		JOINT spine_2
		{
			OFFSET	0	112	-10
			CHANNELS 3  Xrotation Yrotation Zrotation
			JOINT spine_3
			{
				OFFSET	0	206.5	19.3
				CHANNELS 3  Xrotation Yrotation Zrotation
				JOINT spine_4
				{
					OFFSET	0	110.4	14.6
					CHANNELS 3  Xrotation Yrotation Zrotation
					JOINT neck_1
					{
						OFFSET	0	71.8	-50.3
						CHANNELS 3  Xrotation Yrotation Zrotation
						JOINT neck_2
						{
							OFFSET	0	86.2	-25.8
							CHANNELS 3  Xrotation Yrotation Zrotation
							JOINT head_ee
							{
								OFFSET	0	179.8	-8.7
								CHANNELS 3  Xrotation Yrotation Zrotation
								End Site
								{
									OFFSET	1	0	0
								}
							}
						}
					}
					JOINT left_clavicle
					{
						OFFSET	-43.2	22.4	-70.8
						CHANNELS 3  Xrotation Yrotation Zrotation
						JOINT left_shoulder
						{
							OFFSET	-93.9	-5.79999	48.7
							CHANNELS 3  Xrotation Yrotation Zrotation
							JOINT left_elbow
							{
								OFFSET	-291.4	-30.8	15.2
								CHANNELS 3  Xrotation Yrotation Zrotation
								JOINT left_lowarm_twist
								{
									OFFSET	-110.7	-3.89999	13.6
									CHANNELS 3  Xrotation Yrotation Zrotation
									JOINT left_hand
									{
										OFFSET	-110.7	-3.89999	13.6
										CHANNELS 3  Xrotation Yrotation Zrotation
										JOINT left_ee
										{
											OFFSET	-80.8	-5.10001	12.1
											CHANNELS 3  Xrotation Yrotation Zrotation
											End Site
											{
												OFFSET	1	0	0
											}
										}
									}
								}
							}
						}
					}
					JOINT right_clavicle
					{
						OFFSET	43.2	22.4	-70.8
						CHANNELS 3  Xrotation Yrotation Zrotation
						JOINT right_shoulder
						{
							OFFSET	93.9	-5.79999	48.7
							CHANNELS 3  Xrotation Yrotation Zrotation
							JOINT right_elbow
							{
								OFFSET	291.4	-30.8	15.2
								CHANNELS 3  Xrotation Yrotation Zrotation
								JOINT right_lowarm_twist
								{
									OFFSET	110.7	-3.89999	13.6
									CHANNELS 3  Xrotation Yrotation Zrotation
									JOINT right_hand
									{
										OFFSET	110.7	-3.89999	13.6
										CHANNELS 3  Xrotation Yrotation Zrotation
										JOINT right_ee
										{
											OFFSET	80.8	-5.10001	12.1
											CHANNELS 3  Xrotation Yrotation Zrotation
											End Site
											{
												OFFSET	1	0	0
											}
										}
									}
								}
							}
						}
					}
				}
			}
		}
	}
	JOINT left_hip
	{
		OFFSET	-82.8	-127.5	0.300001
		CHANNELS 3  Xrotation Yrotation Zrotation
		JOINT left_knee
		{
			OFFSET	-28.2	-396.7	2.2
			CHANNELS 3  Xrotation Yrotation Zrotation
			JOINT left_ankle
			{
				OFFSET	-11.7	-411.3	35.4
				CHANNELS 3  Xrotation Yrotation Zrotation
				JOINT left_toes
				{
					OFFSET	0	-60	-88.6
					CHANNELS 3  Xrotation Yrotation Zrotation
					JOINT left_foot_ee
					{
						OFFSET	-22.5	-16.5	-42.2
						CHANNELS 3  Xrotation Yrotation Zrotation
						End Site
						{
							OFFSET	1	0	0
						}
					}
				}
			}
		}
	}
	JOINT right_hip
	{
		OFFSET	82.8	-127.5	0.300001
		CHANNELS 3  Xrotation Yrotation Zrotation
		JOINT right_knee
		{
			OFFSET	28.2	-396.7	2.2
			CHANNELS 3  Xrotation Yrotation Zrotation
			JOINT right_ankle
			{
				OFFSET	11.7	-411.3	35.4
				CHANNELS 3  Xrotation Yrotation Zrotation
				JOINT right_toes
				{
					OFFSET	0	-60	-88.6
					CHANNELS 3  Xrotation Yrotation Zrotation
					JOINT right_foot_ee
					{
						OFFSET	22.5	-16.5	-42.2
						CHANNELS 3  Xrotation Yrotation Zrotation
						End Site
						{
							OFFSET	1	0	0
						}
					}
				}
			}
		}
	}
}
MOTION
Frames: 6
Frame Time: 0.02
2861.87 696.03 -624.74 169.281 -73.526 174.223 -1.85505 -0.503488 -3.38628 -1.84871 -0.287118 -3.41142 -1.82512 0.544679 -3.37991 -1.84106 0.00437494 -3.42346 -8.55872 13.6191 2.4527 -8.64864 23.8125 5.55018 -0.0 0.0 -0.0 9.27406 8.9426 17.6052 0.891315 -20.1019 63.4205 3.19689 -57.7167 1.76207 -58.3474 -5.07797 5.04676 -1.84404 10.8265 -7.29753 -0.0 0.0 -0.0 2.22288 3.74962 -3.97247 -17.8347 8.80874 -66.1078 0.593249 16.3771 -0.0853681 67.8935 2.52477 7.78579 -5.01387 -28.8962 15.9372 0.0 0.0 0.0 -7.84443 48.3626 -8.34496 -14.2803 0.319915 2.16248 38.683 -14.2388 -5.02392 -13.1262 0.0 0.0 -0.0 0.0 -0.0 31.449 24.6967 -8.66716 -11.8734 -0.303952 -1.79355 -15.7561 0.265099 -2.39265 13.8499 -0.0 -0.0 0.0 0.0 0.0 
2882.72 694.401 -619.493 168.091 -73.2637 172.653 -1.86311 -0.450243 -3.26111 -1.85723 -0.241932 -3.28312 -1.83741 0.558282 -3.24438 -1.8521 0.0391765 -3.29177 -6.27868 13.1894 2.11742 -6.23528 22.9035 4.67324 -0.0 0.0 -0.0 9.31349 8.48724 17.7187 -1.65587 -19.6145 63.6962 2.99585 -56.0154 1.5937 -57.8613 -5.01804 5.02963 -1.54436 11.001 -5.29438 -0.0 0.0 -0.0 2.45332 3.41677 -4.45774 -17.4091 9.28943 -65.677 0.617756 17.0152 -0.0924089 67.5894 2.49414 7.76162 -5.15733 -28.8261 16.8028 0.0 0.0 0.0 -9.11115 48.4027 -8.0205 -16.0772 0.321723 2.43815 39.0477 -11.3975 -4.97723 -13.1315 0.0 0.0 -0.0 0.0 -0.0 31.618 24.6999 -8.71793 -16.1373 -0.321634 -2.44738 -12.7506 -1.73494 -1.92147 16.5807 -0.0 -0.0 0.0 0.0 0.0 
2907.29 692.11 -610.917 166.411 -72.1035 169.854 -2.00113 -0.274313 -2.83734 -1.99665 -0.0932842 -2.84903 -1.9876 0.605018 -2.78566 -1.99839 0.157669 -2.8462 -4.03831 12.1719 3.2566 -3.90647 19.8042 5.27479 -0.0 0.0 -0.0 8.7685 9.61163 16.611 -4.09376 -18.8404 63.3967 2.83003 -54.4891 1.45744 -57.1854 -4.93494 5.00497 -1.43581 12.5325 -3.8966 -0.0 0.0 -0.0 2.50995 2.88056 -4.61288 -16.8424 10.6573 -66.1748 0.646583 17.7603 -0.101024 68.3415 2.57011 7.82111 -5.06623 -28.9104 16.223 0.0 0.0 0.0 -9.06987 44.8135 -8.77409 -22.7768 0.252333 3.46321 38.3224 -5.27354 -4.78832 -11.487 0.0 0.0 -0.0 0.0 -0.0 29.4742 24.7696 -9.06425 -17.851 -0.315027 -2.71022 -6.29396 -6.35709 -0.933746 15.4787 -0.0 -0.0 0.0 0.0 0.0 
2930.71 692.182 -600.54 163.565 -71.5655 166.691 -2.05259 -0.255646 -2.59596 -2.04885 -0.0899974 -2.60695 -2.041 0.55142 -2.5496 -2.05004 0.141981 -2.60464 -2.344 11.9747 3.33644 -2.1625 19.0821 5.09891 -0.0 0.0 -0.0 8.44991 8.92809 16.0748 -5.86539 -18.7179 63.4516 2.37807 -49.6655 1.1006 -55.9911 -4.78882 4.95899 -1.04135 12.0887 -1.60432 -0.0 0.0 -0.0 2.98197 2.59693 -5.56637 -16.0802 12.0327 -67.2386 0.578699 15.9962 -0.0813119 67.996 2.53512 7.79391 -5.18305 -28.4961 17.1964 0.0 0.0 0.0 -10.9228 42.6548 -8.71084 -27.0175 0.1467 4.10527 37.8424 -0.188577 -4.68686 -10.5462 0.0 0.0 -0.0 0.0 -0.0 27.2644 24.8866 -9.32423 -19.2253 -0.304052 -2.92079 -0.840509 -8.42675 -0.123243 15.0868 -0.0 -0.0 0.0 0.0 0.0 
2951.98 695.968 -592.149 160.905 -70.0852 163.313 -2.42921 -0.169012 -2.40753 -2.42598 -0.0155171 -2.4134 -2.42194 0.591801 -2.33981 -2.42951 0.214956 -2.40387 -0.819871 11.3721 3.75565 -0.6236 17.3776 5.29336 -0.0 0.0 -0.0 8.42931 8.41152 16.0717 -8.5646 -17.9788 63.395 2.04996 -45.435 0.858327 -54.7175 -4.63407 4.9066 -0.822498 12.7287 0.0558201 -0.0 0.0 -0.0 3.59932 2.02967 -6.82081 -14.8667 13.2919 -66.1772 0.580673 16.0479 -0.0818568 67.9677 2.53226 7.79167 -5.36191 -28.8088 17.9854 0.0 0.0 0.0 -10.3615 40.7938 -9.16603 -34.9225 -0.175731 5.27456 36.5908 7.73282 -4.55409 -10.8233 0.0 0.0 -0.0 0.0 -0.0 23.5748 25.397 -8.68421 -18.7644 -0.308296 -2.8502 4.28469 -10.5686 0.620592 13.6265 -0.0 -0.0 0.0 0.0 0.0 
2966.31 702.332 -583.416 159.266 -69.4568 161.733 -2.51277 -0.153488 -2.23392 -2.51 -0.011063 -2.23915 -2.50659 0.555466 -2.16922 -2.5131 0.205996 -2.22969 -0.223137 10.8262 4.35027 -0.0391418 15.801 5.81563 -0.0 0.0 -0.0 8.14924 8.5205 15.5459 -10.4748 -17.4865 63.445 1.83919 -42.3319 0.712168 -53.7982 -4.5231 4.86666 -0.645044 13.1367 1.34581 -0.0 0.0 -0.0 4.3692 1.74354 -8.35297 -13.6638 14.3013 -65.4487 0.57471 15.8915 -0.0802162 67.9263 2.52808 7.78839 -5.51259 -29.1145 18.6141 0.0 0.0 0.0 -9.66191 37.35 -10.3181 -40.4169 -0.493504 6.05654 35.6446 13.3908 -4.50295 -11.0419 0.0 0.0 -0.0 0.0 -0.0 20.9698 25.4949 -8.64306 -18.1809 -0.312853 -2.76079 9.6801 -11.9588 1.3809 12.9118 -0.0 -0.0 0.0 0.0 0.0 
